<svg fill="#f6f4f4" viewBox="0 0 24 24" id="add-user-left-5" height="25px" width="25px" data-name="Flat Color" xmlns="http://www.w3.org/2000/svg" class="icon flat-color"><g id="SVGRepo_bgCarrier" stroke-width="0"></g><g id="SVGRepo_tracerCarrier" stroke-linecap="round" stroke-linejoin="round"></g><g id="SVGRepo_iconCarrier"><path id="secondary" d="M5,20a1,1,0,0,0,1-1V18H7a1,1,0,0,0,0-2H6V15a1,1,0,0,0-2,0v1H3a1,1,0,0,0,0,2H4v1A1,1,0,0,0,5,20Z" style="fill: #2ca9bc;"></path><path id="primary" d="M9,17a4,4,0,0,0-2.63-3.74,6,6,0,0,1,2.31-1.11,6,6,0,1,1,8.64,0A6,6,0,0,1,22,18v1a1,1,0,0,1-.29.71C21.47,19.94,19.23,22,13,22a17.17,17.17,0,0,1-6.88-1.18A4,4,0,0,0,9,17Z" style="fill: #faf5f5;"></path></g></svg>